<?xml version="1.0" standalone="no"?><!DOCTYPE svg PUBLIC "-//W3C//DTD SVG 1.1//EN" "http://www.w3.org/Graphics/SVG/1.1/DTD/svg11.dtd"><svg class="icon" width="32px" height="32.00px" viewBox="0 0 1024 1024" version="1.1" xmlns="http://www.w3.org/2000/svg"><path fill="#4B7902" d="M816.64 460.8v230.4c0 74.885-53.606 137.165-124.529 150.764L663.04 972.8c0 28.273-22.917 51.2-51.2 51.2h-204.8c-28.283 0-51.2-22.927-51.2-51.2l-29.071-130.836c-70.923-13.6-124.529-75.879-124.529-150.764V384c0-70.574 47.657-129.884 112.507-147.876L355.84 51.2c0-28.273 22.917-51.2 51.2-51.2h204.8c28.283 0 51.2 22.927 51.2 51.2l41.093 184.924c56.812 15.76 100.28 63.263 110.203 122.276h2.304c14.141 0 25.6 11.459 25.6 25.6v51.2c0 14.141-11.459 25.6-25.6 25.6z m-409.6 512h204.8l28.447-128H378.593l28.447 128z m204.8-921.6h-204.8l-39.823 179.2h284.446L611.84 51.2zM765.44 384c0-56.556-45.844-102.4-102.4-102.4h-307.2c-56.556 0-102.4 45.844-102.4 102.4v307.2c0 56.556 45.844 102.4 102.4 102.4h307.2c56.556 0 102.4-45.844 102.4-102.4V384z m-102.4 358.4h-307.2c-28.283 0-51.2-22.927-51.2-51.2V384c0-28.273 22.917-51.2 51.2-51.2h307.2c28.273 0 51.2 22.927 51.2 51.2v307.2c0 28.273-22.927 51.2-51.2 51.2z" /></svg>