<?xml version="1.0" standalone="no"?><!DOCTYPE svg PUBLIC "-//W3C//DTD SVG 1.1//EN" "http://www.w3.org/Graphics/SVG/1.1/DTD/svg11.dtd"><svg class="icon" width="32px" height="32.00px" viewBox="0 0 1024 1024" version="1.1" xmlns="http://www.w3.org/2000/svg"><path fill="#4B7902" d="M896 128.00000001v192a256 256 0 0 1-256 256H384a256 256 0 0 1-256-256V128.00000001H64V64.00000001h896v64h-64z m-64 0H192v192a192 192 0 0 0 192 192h256a192 192 0 0 0 192-192V128.00000001z m-192 128h128v64h-128V256.00000001zM448 256.00000001h128v64H448V256.00000001zM256 256.00000001h128v64H256V256.00000001z m128.448 578.752c1.152 50.112 28.928 61.248 63.552 61.248v64c-70.656 0-128-39.616-128-128 0-11.008-1.664-53.632 0-64-5.312-32-21.312-64-64-64v-64c135.424 0 133.504 148.928 128.448 194.752zM448 704.00000001v-64c135.36 0 133.504 148.928 128.448 194.752 1.152 50.112 28.928 61.248 63.552 61.248v64c-70.656 0-128-39.616-128-128 0-11.008-1.664-53.632 0-64-5.312-32-21.312-64-64-64z m192 0v-64c135.36 0 133.504 148.928 128.448 194.752 1.152 50.112 28.928 61.248 63.552 61.248v64c-70.656 0-128-39.616-128-128 0-11.008-1.664-53.632 0-64-5.376-32-21.376-64-64-64z"  /></svg>